<svg width="154" height="124" viewBox="0 0 154 124" fill="none" xmlns="http://www.w3.org/2000/svg">
<path d="M141.995 58.7242C141.972 58.8846 140.782 58.6181 140.766 58.7786C140.082 64.8837 139.335 69.9201 138.4 74.4697C137.767 77.5617 137.047 80.428 136.199 83.2535C135.991 83.9606 135.774 84.6649 135.546 85.3693C134.765 87.7787 133.891 90.1908 132.889 92.7226C131.7 95.7385 130.333 98.9229 128.752 102.472C128.752 104.413 117.686 105.985 104.037 105.985C90.3878 105.985 79.3219 104.413 79.3219 102.472C76.568 96.3422 74.4607 91.2269 72.8057 86.3483C69.7905 77.472 68.2795 69.3735 67.1203 57.3481H140.953C140.91 57.6663 142.035 58.4087 141.995 58.7242V58.7242Z" fill="#A4A4F7"/>
<path d="M84.5115 57.3481C78.1527 67.8316 74.2999 80.7027 72.8057 86.3483C69.7905 77.472 68.2795 69.3735 67.1203 57.3481H84.5115Z" fill="#7373EF"/>
<path d="M143.75 55.0843C143.013 56.0279 144.146 57.7847 143.402 58.2334C143.248 58.3258 141.09 57.2653 140.953 57.3469C129.405 59.9602 104.542 61.2329 83.2749 59.4762C77.5125 59.0003 72.0181 58.3014 67.12 57.3469C64.9089 56.0796 61.6926 54.0781 63.0327 46.858H145.037C145.814 51.035 144.973 53.5179 143.75 55.0843V55.0843Z" fill="#C5C5FF"/>
<path d="M92.9706 46.858C89.2183 50.1186 85.9886 54.6193 83.2749 59.4762C77.5125 59.0003 72.0181 58.3014 67.12 57.3468C64.9089 56.0796 61.6926 54.0781 63.0327 46.858H92.9706Z" fill="#A4A4F7"/>
<path d="M104.035 53.2855C126.68 53.2855 145.038 50.4066 145.038 46.8554C145.038 43.3041 126.68 40.4252 104.035 40.4252C81.3897 40.4252 63.032 43.3041 63.032 46.8554C63.032 50.4066 81.3897 53.2855 104.035 53.2855Z" fill="#7373EF"/>
<path d="M136.199 83.2522C135.991 83.9593 135.773 84.6636 135.545 85.368C134.765 87.7774 133.89 90.1895 132.888 92.7213C119.397 90.5485 100.207 80.8673 89.9315 64.2298L93.6704 63.4466C94.441 63.8926 117.266 81.4737 136.199 83.2522Z" fill="#7373EF"/>
<path d="M135.372 88.6934C117.167 85.733 91.4619 71.2824 86.4222 59.7104C86.3441 59.5317 86.2697 59.3531 86.2024 59.1774C85.938 58.4894 85.9866 57.8685 86.2469 57.3472C87.2369 55.3356 91.335 54.7822 92.5521 57.3472C92.5782 57.3913 92.5967 57.435 92.6154 57.4791C92.9803 58.3428 93.4751 59.2242 94.0822 60.1085C101.143 70.3804 123.565 81.6364 136.849 81.941C146.869 82.1664 151.686 76.1578 140.762 58.7793C140.829 58.302 140.888 57.8247 140.952 57.3475C141.767 56.8789 142.857 56.226 143.751 55.0871C162.882 84.181 152.408 91.4634 135.372 88.6934V88.6934Z" fill="#F0E3E7"/>
<path d="M67.5088 124C67.5088 124 66.1453 123.119 62.8185 123.641C59.9573 124.09 46.6903 120.968 44.7807 120.269C44.7472 120.255 44.7204 120.244 44.6936 120.234C44.6936 120.234 44.1308 119.276 41.6181 119.173C41.4271 119.165 41.2227 119.162 41.0083 119.165C37.973 119.208 23.1113 114.52 23.1515 112.102C23.1515 112.102 23.1314 112.089 23.0878 112.064C22.7695 111.871 21.2485 110.985 19.0977 110.365C18.8062 110.28 18.5013 110.202 18.1864 110.128C15.2683 109.454 3.79037 101.488 3.62286 99.1633C3.62286 99.1633 3.61951 99.1633 3.61951 99.1606C2.52063 98.6194 1.56916 97.654 0.919208 96.7811C0.265909 95.9027 -0.0858677 95.1168 0.0179901 94.94C0.369767 94.3281 5.93453 96.2888 10.8661 88.9654L71.2611 105.119C71.2611 105.119 74.6984 117.19 67.5088 124V124Z" fill="white"/>
<path d="M49.8695 112.218C49.8192 112.384 48.1273 117.542 44.7804 120.27C44.7469 120.256 44.7201 120.246 44.6933 120.235C44.6933 120.235 44.1305 119.277 41.6178 119.174C44.6866 117.126 49.7087 112.367 49.8695 112.218V112.218Z" fill="#F0E3E7"/>
<path d="M27.2956 108.514C25.0275 110.953 23.3054 111.946 23.0877 112.065C22.7694 111.872 21.2484 110.986 19.0975 110.366C23.158 110.061 27.1616 108.563 27.2956 108.514Z" fill="#F0E3E7"/>
<path d="M8.27287 98.2826C7.29795 98.6443 5.28779 99.1175 3.61937 99.161C2.52049 98.6198 1.56902 97.6544 0.919067 96.7815C3.16374 97.4967 8.27287 98.2826 8.27287 98.2826V98.2826Z" fill="#F0E3E7"/>
<path d="M28.5468 86.1584C34.0064 87.6633 59.2861 96.0161 67.8493 101.482C76.359 106.914 67.8081 111.674 61.3026 110.935C46.2144 109.223 13.6975 94.6253 11.5085 92.8232C6.66803 88.8384 16.7784 82.9143 28.5468 86.1584V86.1584Z" fill="#FF8293"/>
<path d="M35.6976 92.1951C37.5191 92.7194 45.9775 95.7344 48.8882 97.8733C51.7808 99.9988 49.0507 102.193 46.8982 102.016C41.9063 101.603 30.96 96.092 30.2089 95.3738C28.5482 93.7854 31.7711 91.0649 35.6976 92.1951Z" fill="#F6C719"/>
<path d="M105.152 5.78148C77.2913 36.3154 47.3166 88.4878 44.3315 97.1003C43.4052 98.596 35.3941 97.4674 36.0799 94.4515C40.07 76.9193 72.7785 27.4745 98.7463 1.13667C99.2405 0.632489 99.9678 0.301533 100.733 0.13048C104.643 -0.756057 107.624 3.06748 105.152 5.78148V5.78148Z" fill="#F6D14F"/>
<path d="M105.152 5.78148C77.2914 36.3154 47.3167 88.4878 44.3316 97.1003C44.0334 97.5816 43.0049 97.791 41.7687 97.7529C43.7319 93.0347 64.604 43.6279 86.0255 22.1335C99.7113 8.40302 100.874 2.78465 99.6845 0.486727C100.013 0.328999 100.368 0.212063 100.733 0.13048C104.643 -0.756057 107.625 3.06748 105.152 5.78148V5.78148Z" fill="#F6C719"/>
</svg>
