<svg width="201" height="218" viewBox="0 0 201 218" fill="none" xmlns="http://www.w3.org/2000/svg">
<rect opacity="0.01" width="200.377" height="218" fill="white"/>
<path fill-rule="evenodd" clip-rule="evenodd" d="M42.9379 68.6857C42.9379 66.4455 42.9379 65.3254 43.3739 64.4697C43.7574 63.7171 44.3693 63.1052 45.122 62.7217C45.9776 62.2857 47.0977 62.2857 49.3379 62.2857L129.57 62.2857C131.81 62.2857 132.93 62.2857 133.786 62.7217C134.539 63.1052 135.151 63.7171 135.534 64.4697C135.97 65.3254 135.97 66.4455 135.97 68.6857V140.143H49.3379C47.0977 140.143 45.9776 140.143 45.122 139.707C44.3693 139.323 43.7574 138.711 43.3739 137.959C42.9379 137.103 42.9379 135.983 42.9379 133.743V68.6857Z" fill="#5476CB"/>
<path d="M42.9379 127.686H135.97V140.143H46.9379C44.7288 140.143 42.9379 138.352 42.9379 136.143V127.686Z" fill="#152232"/>
<path fill-rule="evenodd" clip-rule="evenodd" d="M135.97 80.9714H163.444C164.9 80.9714 165.628 80.9714 166.269 81.1952C166.835 81.393 167.35 81.7157 167.774 82.1395C168.255 82.6187 168.572 83.2739 169.206 84.5843L181.771 110.557V140.143H135.97V80.9714Z" fill="#131523"/>
<path fill-rule="evenodd" clip-rule="evenodd" d="M143.126 90.3143H161.733L171.752 110.557H143.126L143.126 90.3143Z" fill="white"/>
<ellipse cx="70.1319" cy="140.143" rx="14.3126" ry="15.5714" fill="#A1A7C4"/>
<ellipse cx="70.132" cy="140.143" rx="5.72506" ry="6.22857" fill="white"/>
<ellipse cx="157.439" cy="140.143" rx="14.3126" ry="15.5714" fill="#A1A7C4"/>
<ellipse cx="157.439" cy="140.143" rx="5.72506" ry="6.22857" fill="white"/>
<path fill-rule="evenodd" clip-rule="evenodd" d="M20.0377 102.771H68.7007V116.007V129.243V155.714H20.0377V129.243V116.007V102.771Z" fill="#D7DBEC"/>
<rect x="34.3503" y="102.771" width="20.0377" height="15.5714" fill="#A1A7C4"/>
</svg>
