<svg width="140" height="118" viewBox="0 0 140 118" fill="none" xmlns="http://www.w3.org/2000/svg">
<path d="M21.0242 74.6491C31.622 74.6491 40.2131 67.643 40.2131 59.0004C40.2131 50.3578 31.622 43.3517 21.0242 43.3517C10.4265 43.3517 1.8353 50.3578 1.8353 59.0004C1.8353 67.643 10.4265 74.6491 21.0242 74.6491Z" fill="#FCEA81"/>
<path d="M8.14711 59.0011C8.14711 50.3581 13.9129 43.3517 21.0253 43.3517C10.4271 43.3517 1.8353 50.3581 1.8353 59.0011C1.8353 67.6441 10.4268 74.6505 21.0253 74.6505C13.9129 74.6507 8.14711 67.6443 8.14711 59.0011Z" fill="#EDD97C"/>
<path d="M37.3772 55.3745C33.3621 55.2293 30.1659 52.5279 30.1659 49.2191C30.1659 45.818 33.5463 43.0585 37.7203 43.0585C38.0958 43.0585 38.4649 43.0797 38.8278 43.1244" fill="#E0B394"/>
<path d="M104.994 55.3745C109.01 55.2293 112.209 52.5279 112.209 49.2191C112.209 45.818 108.825 43.0585 104.651 43.0585C104.276 43.0585 103.903 43.0822 103.544 43.1244" fill="#E0B394"/>
<path d="M106.483 94.0232V117.995H35.8929V94.0232C35.8929 86.0643 42.8742 79.4362 52.1157 77.9864C53.3461 77.791 54.6186 77.6907 55.9203 77.6907H86.4552C87.7568 77.6907 89.0294 77.791 90.2598 77.9864C99.5016 79.4362 106.483 86.0643 106.483 94.0232Z" fill="#EA8249"/>
<path d="M90.2605 77.9864L85.5976 99.0325L71.1883 90.6855L56.7755 99.0325L52.1161 77.9864C53.3465 77.791 54.6191 77.6907 55.9207 77.6907H86.4556C87.7575 77.6907 89.0301 77.791 90.2605 77.9864Z" fill="#D36F3D"/>
<path d="M85.2781 62.4385V77.1089C85.2781 83.4547 78.9688 88.6002 71.1872 88.6002C63.4034 88.6002 57.0964 83.4549 57.0964 77.1089V62.4385H85.2781Z" fill="#E0B394"/>
<path d="M68.2582 77.6907H55.9191C44.8591 77.6907 35.8929 85.0026 35.8929 94.0223V117.995H48.2319V94.0223C48.2322 85.0026 57.1982 77.6907 68.2582 77.6907Z" fill="#D36F3D"/>
<path d="M60.2585 82L46.9666 74.1245C39.9426 69.9628 36.1428 63.0806 36.9779 56.0329L39.2833 36.5769C40.8712 23.1768 54.6792 12.9519 71.1874 12.9519C87.6953 12.9519 101.504 23.1768 103.091 36.5769L105.397 56.0329C106.232 63.0806 102.432 69.9624 95.4082 74.1245L82.1163 82C75.5996 85.8609 66.7752 85.8609 60.2585 82Z" fill="#F7CBA4"/>
<path d="M83.8627 65.8998C83.8627 65.8998 83.6781 66.2695 83.2895 66.853C83.1957 67.0035 83.0855 67.162 82.9626 67.3335C82.8168 67.5024 82.6486 67.6741 82.4672 67.867C82.2858 68.0599 82.0786 68.2551 81.8585 68.4718C81.7808 68.5536 81.6965 68.6222 81.6058 68.6935C81.5733 68.72 81.5377 68.7462 81.5021 68.7727C81.3758 68.8677 81.2464 68.9682 81.1135 69.0684C80.8479 69.2717 80.5599 69.4724 80.2587 69.6837C79.9413 69.8739 79.6014 70.0534 79.2515 70.2488C79.0766 70.3465 78.8954 70.4415 78.7106 70.5367C78.5261 70.6266 78.3286 70.7003 78.1279 70.7824C77.7328 70.946 77.3217 71.1045 76.8975 71.2629C76.0231 71.5058 75.1134 71.7911 74.1419 71.9098C73.1833 72.0921 72.1829 72.1211 71.1856 72.1607C70.1883 72.1211 69.1877 72.0948 68.2294 71.9125C67.2581 71.7936 66.3481 71.5085 65.4738 71.2656C65.0496 71.1098 64.6384 70.9513 64.24 70.7877C64.0424 70.7058 63.8449 70.6319 63.6572 70.542C63.4758 70.4443 63.2947 70.3519 63.1197 70.2541C62.7702 70.0587 62.4268 69.8764 62.1095 69.689C61.8082 69.4777 61.5233 69.2744 61.2546 69.0737C61.1218 68.9707 60.9955 68.873 60.8691 68.7753C60.8239 68.7409 60.7784 68.7066 60.7332 68.6723C60.6555 68.6089 60.5809 68.548 60.5162 68.4768C60.3056 68.2683 60.1016 68.0754 59.9236 67.8852C59.7486 67.6926 59.5771 67.5234 59.4347 67.3545C59.3052 67.175 59.1854 67.0111 59.0851 66.8606C58.6804 66.2586 58.512 65.8994 58.512 65.8994C58.512 65.8994 58.9913 66.0183 59.7294 66.2612C59.9173 66.3193 60.1115 66.3905 60.3285 66.4619C60.5586 66.5174 60.7948 66.5887 61.0475 66.6573C61.3032 66.726 61.559 66.8106 61.8311 66.8896C62.0998 66.9742 62.4042 67.0295 62.7055 67.1035C63.0067 67.1747 63.3077 67.2621 63.6219 67.3386C63.9489 67.3967 64.2761 67.4653 64.6127 67.5312C64.7811 67.563 64.9462 67.6025 65.1146 67.6396C65.2861 67.6714 65.4644 67.6898 65.6391 67.7188C65.9921 67.7691 66.345 67.8272 66.698 67.8931C67.433 67.9486 68.1584 68.0807 68.9161 68.1044C69.6641 68.1837 70.4283 68.1625 71.1859 68.1993C71.9469 68.1625 72.7111 68.1862 73.4591 68.1069C74.2168 68.0857 74.9422 67.9511 75.6772 67.8956C76.0302 67.8322 76.3832 67.7741 76.7361 67.7239C76.911 67.6949 77.0891 67.6764 77.2606 67.6446C77.429 67.605 77.5975 67.5681 77.7625 67.5363C78.0994 67.4704 78.4263 67.399 78.7533 67.3436C79.0707 67.2671 79.3719 67.18 79.6729 67.1086C79.9707 67.0346 80.2816 66.9765 80.5407 66.8947C80.8064 66.8207 81.0556 66.7389 81.3083 66.6755C81.5575 66.6069 81.7906 66.5382 82.0207 66.4829C82.2473 66.4036 82.448 66.3271 82.6393 66.2662C83.3933 66.0107 83.8627 65.8998 83.8627 65.8998Z" fill="#F2F2F2"/>
<path d="M81.6065 68.6934C81.574 68.7199 81.5383 68.7462 81.5027 68.7727C81.3764 68.8679 81.247 68.9681 81.1142 69.0684C80.8485 69.2716 80.5606 69.4724 80.2593 69.6837C79.942 69.8738 79.602 70.0534 79.2521 70.2488C79.0772 70.3465 78.8961 70.4415 78.7112 70.5366C78.5267 70.6265 78.3292 70.7003 78.1285 70.7823C77.7335 70.9459 77.3223 71.1045 76.8981 71.2628C76.0237 71.5057 75.1141 71.791 74.1425 71.9097C73.1839 72.092 72.1835 72.1211 71.1863 72.1607C70.189 72.1211 69.1883 72.0948 68.23 71.9125C67.2587 71.7936 66.3487 71.5085 65.4744 71.2656C65.0502 71.1098 64.639 70.9512 64.2406 70.7876C64.043 70.7058 63.8455 70.6318 63.6579 70.5419C63.4764 70.4442 63.2953 70.3518 63.1204 70.2541C62.7708 70.0587 62.4274 69.8764 62.1101 69.689C61.8088 69.4777 61.524 69.2744 61.2552 69.0737C61.1224 68.9707 60.9961 68.8729 60.8698 68.7752C60.8245 68.7409 60.779 68.7065 60.7338 68.6722C60.8375 68.7012 60.941 68.7303 61.0478 68.7593C61.3035 68.828 61.5593 68.9098 61.8314 68.9891C62.1002 69.0762 62.4045 69.1317 62.7058 69.2057C63.007 69.2769 63.308 69.3615 63.6222 69.4408C63.9492 69.4963 64.2765 69.5676 64.613 69.6335C64.7815 69.665 64.9465 69.7021 65.1149 69.739C65.2865 69.7708 65.4648 69.7893 65.6394 69.8183C65.9924 69.8685 66.3454 69.9291 66.6983 69.9925C67.4334 70.0506 68.1588 70.1826 68.9164 70.2039C69.6645 70.2857 70.4286 70.2619 71.1863 70.3016C71.9473 70.2647 72.7114 70.2884 73.4595 70.2066C74.2171 70.1854 74.9425 70.0534 75.6776 69.9981C76.0305 69.9347 76.3835 69.8738 76.7365 69.8238C76.9114 69.7948 77.0894 69.7764 77.261 69.7445C77.4294 69.7077 77.5978 69.6706 77.7628 69.639C78.0997 69.5731 78.4267 69.5016 78.7536 69.4463C79.071 69.3671 79.3722 69.2799 79.6732 69.2113C79.9711 69.1373 80.2819 69.0767 80.5411 68.9974C80.8067 68.9209 81.056 68.8416 81.3086 68.7757C81.4089 68.749 81.5092 68.7199 81.6065 68.6934Z" fill="#4D4D4D"/>
<path d="M56.7721 56.7889C55.4309 56.7889 54.3435 55.9021 54.3435 54.8084V51.6407C54.3435 50.5469 55.4309 49.6601 56.7721 49.6601C58.1133 49.6601 59.2008 50.5469 59.2008 51.6407V54.8084C59.2008 55.9021 58.1133 56.7889 56.7721 56.7889Z" fill="#4D4D4D"/>
<path d="M80.0486 46.7634C80.0486 46.7634 80.0551 46.7109 80.0769 46.6205C80.1017 46.5332 80.1272 46.3949 80.1814 46.2387C80.2057 46.1578 80.2371 46.0736 80.273 45.981C80.3199 45.887 80.3832 45.7925 80.4502 45.6853C80.5166 45.5777 80.6005 45.4712 80.6884 45.3516C80.7771 45.2302 80.8831 45.138 80.9913 45.0207C81.1016 44.908 81.2253 44.799 81.355 44.6817C81.4921 44.5759 81.6407 44.4715 81.7987 44.3666C82.1079 44.1445 82.4857 43.9841 82.8797 43.8055C83.2869 43.6649 83.7193 43.5125 84.1824 43.442C84.6408 43.3448 85.1218 43.3219 85.6013 43.3037C86.0809 43.3217 86.5622 43.3425 87.0208 43.4393C87.4843 43.5091 87.9167 43.6621 88.3245 43.8015C88.7187 43.9797 89.0968 44.1401 89.4062 44.3625C89.5639 44.4676 89.7129 44.5722 89.8502 44.6775C89.9796 44.7951 90.1031 44.9052 90.2139 45.0172C90.3207 45.1338 90.4318 45.2297 90.5132 45.3465C90.5948 45.4627 90.6737 45.5669 90.7378 45.6722C90.8017 45.7777 90.8636 45.8708 90.9102 45.9644C90.9526 46.0621 90.9902 46.1506 91.0182 46.2343C91.0798 46.3961 91.1052 46.5353 91.1289 46.6224C91.1496 46.7125 91.1541 46.7636 91.1541 46.7636C91.1541 46.7636 91.0871 46.7623 90.9738 46.7533C90.8636 46.7418 90.6926 46.7358 90.5038 46.7134C90.4061 46.7051 90.3063 46.6904 90.1967 46.6786C90.0797 46.6742 89.9644 46.6609 89.8392 46.653C89.5933 46.6318 89.337 46.6005 89.055 46.5915C88.9165 46.5841 88.782 46.5678 88.6415 46.5583C88.4963 46.5567 88.3527 46.5507 88.2103 46.5419C87.9311 46.5124 87.6279 46.5297 87.3461 46.5009C87.0499 46.5097 86.7662 46.48 86.4726 46.4876C86.1838 46.4698 85.8916 46.4887 85.6019 46.4719C85.3123 46.488 85.02 46.4675 84.7307 46.4846C84.4368 46.476 84.153 46.5067 83.856 46.497C83.574 46.5256 83.2699 46.5078 82.9907 46.5376C82.8483 46.5463 82.7047 46.5525 82.5592 46.5539C82.4187 46.5634 82.2851 46.5809 82.1458 46.5878C81.8583 46.6005 81.6193 46.6226 81.3793 46.6397C81.2533 46.6475 81.1355 46.6549 81.0264 46.6616C80.9102 46.6786 80.804 46.6977 80.7028 46.7086C80.507 46.7369 80.3357 46.7434 80.2269 46.7549C80.1133 46.7634 80.0486 46.7634 80.0486 46.7634Z" fill="#666666"/>
<path d="M51.2191 46.7634C51.2191 46.7634 51.2256 46.7109 51.2473 46.6205C51.2722 46.5332 51.2976 46.3949 51.3519 46.2387C51.3762 46.1578 51.4075 46.0736 51.4434 45.981C51.4903 45.887 51.5536 45.7925 51.6206 45.6853C51.687 45.5777 51.771 45.4712 51.8589 45.3516C51.9476 45.2302 52.0536 45.138 52.1618 45.0207C52.272 44.908 52.3958 44.799 52.5255 44.6817C52.6626 44.5759 52.8112 44.4715 52.9692 44.3666C53.2783 44.1445 53.6562 43.9841 54.0501 43.8055C54.4573 43.6649 54.8897 43.5125 55.3529 43.442C55.8113 43.3448 56.2922 43.3219 56.7718 43.3037C57.2514 43.3217 57.7326 43.3425 58.1913 43.4393C58.6548 43.5091 59.0874 43.6621 59.4949 43.8015C59.8889 43.9797 60.2672 44.1401 60.5767 44.3625C60.7344 44.4676 60.8833 44.5722 61.0207 44.6775C61.1501 44.7951 61.2736 44.9052 61.3844 45.0172C61.4912 45.1338 61.6022 45.2297 61.6836 45.3465C61.7653 45.4627 61.8441 45.5669 61.9083 45.6722C61.9722 45.7777 62.034 45.8708 62.0807 45.9644C62.1231 46.0621 62.1606 46.1506 62.1886 46.2343C62.2502 46.3961 62.2757 46.5353 62.2994 46.6224C62.32 46.7125 62.3246 46.7636 62.3246 46.7636C62.3246 46.7636 62.2576 46.7623 62.1443 46.7533C62.034 46.7418 61.8631 46.7358 61.6743 46.7134C61.5765 46.7051 61.4768 46.6904 61.3671 46.6786C61.2501 46.6742 61.1348 46.6609 61.0096 46.653C60.7638 46.6318 60.5075 46.6005 60.2254 46.5915C60.087 46.5841 59.9524 46.5678 59.812 46.5583C59.6667 46.5567 59.5232 46.5507 59.3807 46.5419C59.1015 46.5124 58.7983 46.5297 58.5166 46.5009C58.2204 46.5097 57.9367 46.48 57.6431 46.4876C57.3542 46.4698 57.062 46.4887 56.7724 46.4719C56.4824 46.488 56.1905 46.4675 55.9011 46.4846C55.6072 46.476 55.3235 46.5067 55.0265 46.497C54.7445 46.5256 54.4404 46.5078 54.1612 46.5376C54.0187 46.5463 53.8752 46.5525 53.7296 46.5539C53.5892 46.5634 53.4552 46.5809 53.3162 46.5878C53.0288 46.6005 52.7897 46.6226 52.5498 46.6397C52.4238 46.6475 52.3059 46.6549 52.1968 46.6616C52.0807 46.6786 51.9744 46.6977 51.8733 46.7086C51.6774 46.7369 51.5062 46.7434 51.3974 46.7549C51.2838 46.7634 51.2191 46.7634 51.2191 46.7634Z" fill="#666666"/>
<path d="M85.6021 56.7889C84.2609 56.7889 83.1734 55.9021 83.1734 54.8084V51.6407C83.1734 50.5469 84.2609 49.6601 85.6021 49.6601C86.9433 49.6601 88.0307 50.5469 88.0307 51.6407V54.8084C88.0307 55.9021 86.9433 56.7889 85.6021 56.7889Z" fill="#4D4D4D"/>
<path d="M74.9111 48.0747V57.4492C74.9111 59.1262 73.2438 60.486 71.1874 60.486C69.1309 60.486 67.4636 59.1262 67.4636 57.4492V48.0747" fill="#E0B394"/>
<path d="M45.2492 59.8663C45.0257 62.9481 46.2564 65.9795 48.6913 68.3429L62.5835 82.2646C63.3089 82.9696 64.1313 83.5612 65.0217 84.0338C63.351 83.5586 61.7447 82.8771 60.2586 81.9979L46.9663 74.1236C39.9429 69.9619 36.1448 63.0803 36.9802 56.0324L39.2825 36.576C40.8563 23.3065 54.4108 13.1506 70.7079 12.9579C60.6697 13.1559 49.3034 20.8719 48.7108 29.0897L45.2492 59.8663Z" fill="#E8BA97"/>
<path d="M105.005 29.5752H103.082C103.082 22.3927 99.5138 15.8912 93.7403 11.1829C89.4595 7.69185 83.9678 5.18859 77.8253 4.12962H77.8244V1.76763C77.8244 0.791402 76.854 0 75.6569 0H66.7164C65.5193 0 64.5489 0.791402 64.5489 1.76763V4.12985C50.1203 6.62021 39.2929 17.0665 39.2929 29.575H37.3678C36.8317 29.575 36.37 29.8836 36.2643 30.3123L34.7682 36.3987C34.6286 36.9668 35.1613 37.4966 35.8718 37.4966H51.7582L54.5509 44.0984H87.8227L90.6153 37.4966H106.502C107.212 37.4966 107.745 36.9666 107.605 36.3987L106.109 30.3123C106.003 29.8836 105.542 29.5752 105.005 29.5752Z" fill="#F9C573"/>
<path d="M49.7072 29.5752C49.7072 17.0665 56.999 6.62044 66.7158 4.13009V0C65.5188 0 64.5483 0.791402 64.5483 1.76763V4.12985C50.1197 6.62021 39.2923 17.0665 39.2923 29.575H37.3673C36.8312 29.575 36.3694 29.8836 36.2637 30.3123L34.7677 36.3987C34.6281 36.9668 35.1608 37.4966 35.8709 37.4966H50.6293L51.9408 29.5746H49.7072V29.5752V29.5752Z" fill="#E2AF66"/>
<path d="M71.1856 29.5763C77.8023 29.5763 83.1663 25.202 83.1663 19.8059C83.1663 14.4099 77.8023 10.0356 71.1856 10.0356C64.5688 10.0356 59.2049 14.4099 59.2049 19.8059C59.2049 25.202 64.5688 29.5763 71.1856 29.5763Z" fill="#FCE8CA"/>
<path d="M71.1866 31.0337C63.5983 31.0337 57.4247 25.9993 57.4247 19.8107C57.4247 13.6222 63.598 8.58777 71.1866 8.58777C78.7752 8.58777 84.9485 13.6222 84.9485 19.8107C84.9485 25.9993 78.7749 31.0337 71.1866 31.0337ZM71.1866 11.4927C65.5624 11.4927 60.9869 15.2243 60.9869 19.8107C60.9869 24.3971 65.5627 28.1288 71.1866 28.1288C76.8106 28.1288 81.3864 24.3971 81.3864 19.8107C81.3864 15.2243 76.8109 11.4927 71.1866 11.4927Z" fill="#EA8249"/>
<path d="M73.9454 20.6197C73.6625 20.3473 73.363 20.0878 73.068 19.8248C72.7749 19.5602 72.4624 19.3116 72.1605 19.0539C71.8599 18.8036 71.5467 18.5635 71.2396 18.3181C71.3359 18.2227 71.4374 18.1316 71.5326 18.0353C71.9415 17.6135 72.3428 17.1856 72.7255 16.7422C73.1095 16.3001 73.4758 15.8434 73.8256 15.3735C73.9988 15.137 74.1681 14.8976 74.3298 14.6517C74.4906 14.4053 74.6446 14.1529 74.7864 13.8911C74.4651 14.0068 74.156 14.1322 73.8539 14.2636C73.5526 14.3956 73.2587 14.5334 72.9688 14.6747C72.3923 14.9603 71.8324 15.2585 71.2904 15.5721C70.7467 15.8839 70.2219 16.2112 69.7048 16.5449C69.1919 16.8821 68.6905 17.2282 68.1988 17.5827L67.1611 18.3305L68.1988 19.2634C68.4924 19.5275 68.7875 19.7905 69.0862 20.0504C69.3922 20.3044 69.6915 20.5641 70.0032 20.8133C70.3189 21.0594 70.6235 21.3143 70.9482 21.5533C70.953 21.557 70.9578 21.5604 70.9629 21.5641C70.8877 21.6404 70.8078 21.7127 70.7337 21.7897C70.3497 22.1898 69.9747 22.5973 69.6175 23.0195C69.2557 23.4377 68.9155 23.8738 68.5877 24.3197C68.4246 24.5435 68.2664 24.7712 68.1149 25.0042C67.9634 25.2372 67.8199 25.4769 67.6862 25.7246C67.99 25.6156 68.2839 25.4985 68.5696 25.375C68.8553 25.2515 69.1345 25.1222 69.4089 24.9894C69.9557 24.7219 70.4901 24.4446 71.003 24.1494C71.5207 23.8583 72.0204 23.5523 72.511 23.2391C72.9999 22.9245 73.4806 22.6032 73.9457 22.2691L74.9266 21.5646L73.9454 20.6197Z" fill="#EA8249"/>
<path d="M123.01 20.7936C122.443 20.2474 121.843 19.7282 121.252 19.2016C120.665 18.6713 120.039 18.1733 119.434 17.658C118.832 17.1567 118.204 16.6758 117.59 16.184C117.783 15.9931 117.986 15.8106 118.177 15.6175C118.996 14.7729 119.8 13.9153 120.566 13.0273C121.335 12.1417 122.069 11.227 122.769 10.2856C123.116 9.81219 123.456 9.33237 123.78 8.8401C124.102 8.34646 124.41 7.84106 124.694 7.31653C124.051 7.54837 123.431 7.79957 122.826 8.06253C122.223 8.32687 121.634 8.60342 121.054 8.88643C119.899 9.4582 118.778 10.0562 117.692 10.6833C116.603 11.3083 115.551 11.9635 114.516 12.6319C113.488 13.3071 112.484 14.001 111.499 14.7106L109.42 16.2086L111.499 18.0777C112.087 18.6066 112.678 19.1332 113.276 19.6538C113.889 20.1626 114.488 20.6826 115.113 21.182C115.745 21.6749 116.356 22.1856 117.006 22.6643C117.015 22.6717 117.025 22.6786 117.035 22.6859C116.884 22.8387 116.724 22.9837 116.575 23.1379C115.806 23.939 115.055 24.7555 114.34 25.601C113.615 26.4392 112.933 27.3122 112.277 28.2052C111.95 28.6533 111.633 29.1096 111.33 29.5763C111.026 30.0427 110.739 30.5232 110.471 31.0192C111.079 30.8005 111.668 30.5665 112.24 30.3188C112.812 30.0711 113.372 29.8129 113.921 29.5463C115.017 29.0107 116.087 28.4548 117.115 27.8639C118.152 27.2809 119.153 26.6683 120.135 26.0408C121.115 25.4107 122.077 24.767 123.009 24.0977L124.974 22.6866L123.01 20.7936Z" fill="#FCEA81"/>
<path d="M95.5254 106.923C95.2174 106.626 94.8913 106.344 94.5705 106.058C94.2517 105.77 93.9115 105.499 93.5831 105.219C93.2559 104.947 92.9148 104.685 92.5813 104.418C92.6862 104.315 92.7966 104.216 92.9004 104.111C93.3457 103.652 93.7821 103.186 94.1981 102.704C94.616 102.222 95.0145 101.726 95.3951 101.214C95.5836 100.957 95.7679 100.697 95.9439 100.429C96.1191 100.161 96.2862 99.8862 96.441 99.6014C96.0917 99.7274 95.7549 99.8639 95.4262 100.007C95.0984 100.15 94.7791 100.301 94.4631 100.454C93.8363 100.765 93.2268 101.09 92.637 101.431C92.0455 101.77 91.4741 102.126 90.9114 102.489C90.3533 102.856 89.8079 103.233 89.2727 103.618L88.1434 104.432L89.2727 105.447C89.5923 105.735 89.913 106.021 90.2383 106.304C90.5712 106.58 90.897 106.863 91.2359 107.134C91.5795 107.402 91.911 107.679 92.264 107.939C92.269 107.943 92.2747 107.947 92.2798 107.951C92.1981 108.034 92.1111 108.112 92.0305 108.196C91.6126 108.631 91.2045 109.075 90.8159 109.534C90.4225 109.989 90.0521 110.464 89.6951 110.949C89.5177 111.192 89.3459 111.44 89.1805 111.694C89.0155 111.947 88.8595 112.208 88.714 112.477C89.0443 112.359 89.3642 112.232 89.6751 112.097C89.9859 111.962 90.2897 111.822 90.5882 111.677C91.1833 111.386 91.7649 111.085 92.3227 110.763C92.8862 110.446 93.4299 110.114 93.9635 109.773C94.4956 109.431 95.0184 109.081 95.5246 108.717L96.5919 107.951L95.5254 106.923Z" fill="#FCEA81"/>
<path d="M73.6173 89.8979H68.7603V118H73.6173V89.8979Z" fill="#D36F3D"/>
<path d="M20.9261 38.5878C20.0317 38.5878 19.3071 37.9966 19.3071 37.2675V31.9862C19.3071 31.2571 20.0317 30.6659 20.9261 30.6659C21.8205 30.6659 22.5451 31.2571 22.5451 31.9862V37.2675C22.5451 37.9966 21.8202 38.5878 20.9261 38.5878Z" fill="#FCEA81"/>
<path d="M4.53508 42.2817C3.96904 42.2817 3.41995 42.0393 3.12266 41.6083L0.208236 37.3833C-0.230072 36.7477 0.0460255 35.9429 0.825428 35.5852C1.60427 35.2278 2.59138 35.4532 3.03025 36.0888L5.94439 40.3138C6.3827 40.9494 6.1066 41.7542 5.3272 42.1119C5.07597 42.2271 4.80383 42.2817 4.53508 42.2817Z" fill="#FCEA81"/>
<path d="M135.978 39.2583L132.025 44.508V77.6115H125.06V44.508L121.106 39.2583L124.827 28.1383H132.261L135.978 39.2583Z" fill="#CCCCCC"/>
<path d="M26.8777 58.4841H23.9633C23.9633 59.8491 22.6014 60.9597 20.9276 60.9597C19.2538 60.9597 17.892 59.8491 17.892 58.4841H14.9778C14.9778 60.7491 16.8935 62.6509 19.4705 63.183V76.2356H22.3847V63.183C24.962 62.6509 26.8777 60.7491 26.8777 58.4841Z" fill="white"/>
<path d="M135.979 39.2583L132.025 44.508V77.6115H126.679V44.508L122.725 39.2583L126.446 28.1383H132.261L135.979 39.2583Z" fill="#E6E6E6"/>
<path d="M130.498 117.995H126.59C122.309 117.995 118.839 115.165 118.839 111.675V83.9306C118.839 80.4396 122.309 77.61 126.59 77.61H130.498C134.778 77.61 138.248 80.44 138.248 83.9306V111.675C138.248 115.165 134.778 117.995 130.498 117.995Z" fill="#5D9EBA"/>
<path d="M128.713 111.675V83.9305C128.713 81.3019 130.681 79.0487 133.481 78.0957C132.562 77.783 131.555 77.6099 130.497 77.6099H126.589C122.309 77.6099 118.839 80.44 118.839 83.9305V111.675C118.839 115.166 122.309 117.995 126.589 117.995H130.497C131.555 117.995 132.562 117.822 133.481 117.509C130.681 116.556 128.713 114.303 128.713 111.675Z" fill="#508DA3"/>
<path d="M140 77.6073C140 78.7032 138.912 79.5879 137.571 79.5879H119.516C118.172 79.5879 117.087 78.7032 117.087 77.6073C117.087 76.514 118.172 75.6268 119.516 75.6268H137.571C138.912 75.6268 140 76.514 140 77.6073Z" fill="#508DA3"/>
<path d="M140 77.6103C140 78.7062 138.912 79.5909 137.571 79.5909H127.815C126.474 79.5909 125.386 78.7062 125.386 77.6103C125.386 76.517 126.474 75.6298 127.815 75.6298H137.571C138.912 75.6298 140 76.517 140 77.6103Z" fill="#5D9EBA"/>
<path d="M128.544 110.61C127.202 110.61 126.115 109.723 126.115 108.629V86.9758C126.115 85.8821 127.202 84.9953 128.544 84.9953C129.886 84.9953 130.973 85.8821 130.973 86.9758V108.629C130.972 109.723 129.885 110.61 128.544 110.61Z" fill="#5D9EBA"/>
<path d="M130.972 86.9768V108.63C130.972 109.679 129.975 110.537 128.712 110.603V85.0043C129.975 85.0729 130.972 85.9284 130.972 86.9768Z" fill="#508DA3"/>
<path d="M18.4571 104.443C17.7825 104.384 17.1077 104.349 16.4334 104.303L15.4214 104.239L14.4892 104.192L15.5082 102.861L17.0241 100.804L18.4947 98.7234L20.6396 95.6899L16.5145 95.8399L14.4909 95.9134C13.8163 95.9335 13.1415 95.9745 12.4672 96.007C12.1046 96.024 11.7417 96.0432 11.3792 96.0637C11.5366 95.7846 11.6898 95.503 11.844 95.2227C12.0481 94.8554 12.2462 94.4855 12.4386 94.1124C12.8312 93.37 13.2065 92.6194 13.5651 91.8601C13.6566 91.6713 13.7445 91.4805 13.831 91.2892C13.9169 91.0975 14.0082 90.9085 14.0882 90.7137C14.2501 90.3257 14.4247 89.9436 14.5717 89.5479C14.206 89.8343 13.868 90.1346 13.5173 90.4284C13.341 90.575 13.1759 90.7271 13.0052 90.8762C12.8351 91.026 12.6664 91.1763 12.5019 91.3286C11.8356 91.9338 11.1853 92.5473 10.5523 93.1695C10.2321 93.4788 9.91758 93.7906 9.60871 94.1057C9.29841 94.42 8.98332 94.7316 8.68264 95.0506L7.77126 96.0026L6.8808 96.9652L5.07274 98.9202L8.41925 99.2058C9.09381 99.2634 9.76866 99.3005 10.4429 99.3457C11.0926 99.3911 11.742 99.4261 12.392 99.4574L11.3684 100.792L9.85174 102.85C9.60108 103.194 9.3603 103.542 9.11388 103.888L8.37856 104.929L6.23195 107.966L10.3624 107.817L12.3861 107.745C13.0606 107.724 13.7355 107.686 14.4097 107.652L15.4217 107.601L15.487 107.597C15.3316 107.873 15.1793 108.151 15.0275 108.429C14.8246 108.797 14.6254 109.167 14.4338 109.54C14.0427 110.283 13.6662 111.033 13.3088 111.793C13.2175 111.982 13.1293 112.173 13.0437 112.364C12.9586 112.556 12.8668 112.745 12.7874 112.94C12.626 113.328 12.4519 113.71 12.3055 114.106C12.6718 113.82 13.01 113.52 13.3619 113.227C13.5388 113.08 13.7033 112.928 13.8745 112.779C14.0449 112.629 14.2133 112.479 14.3784 112.327C15.0464 111.722 15.6956 111.108 16.3297 110.487C16.6507 110.178 16.9641 109.865 17.2736 109.551C17.5847 109.237 17.899 108.925 18.1999 108.606L19.1113 107.654L20.0023 106.692L21.8175 104.732L18.4571 104.443Z" fill="#FCEA81"/>
<path d="M29.7505 72.7942V77.13C29.7505 79.1159 28.7628 80.9167 27.1665 82.2186C25.5701 83.5205 23.365 84.3259 20.9267 84.3259C16.0533 84.3259 12.1029 81.1043 12.1029 77.13V72.7942H29.7505Z" fill="#999999"/>
<path d="M15.6647 77.136V72.8001H12.1029V77.136C12.1029 81.1103 16.0533 84.3319 20.9267 84.3319C21.5371 84.3319 22.1328 84.2814 22.7079 84.1853C18.688 83.5133 15.6647 80.6127 15.6647 77.136Z" fill="#808080"/>
<path d="M63.5014 105.153C64.7979 105.153 65.849 104.296 65.849 103.239C65.849 102.181 64.7979 101.324 63.5014 101.324C62.2049 101.324 61.1539 102.181 61.1539 103.239C61.1539 104.296 62.2049 105.153 63.5014 105.153Z" fill="#808080"/>
<path d="M63.5014 113.014C64.7979 113.014 65.849 112.157 65.849 111.1C65.849 110.042 64.7979 109.185 63.5014 109.185C62.2049 109.185 61.1539 110.042 61.1539 111.1C61.1539 112.157 62.2049 113.014 63.5014 113.014Z" fill="#808080"/>
</svg>
